<svg width="237" height="90" viewBox="0 0 237 90" fill="none" xmlns="http://www.w3.org/2000/svg">
<path d="M92.2177 74.9828L92.3871 53.9336H88.6606V84.509H92.3871L98.7602 63.4598L98.5908 84.509H102.317V53.9336H98.5908L92.2177 74.9828Z" fill="white"/>
<path d="M119.892 67.3493C121.501 66.3926 124.041 64.3542 124.041 60.9015C124.041 56.2839 120.611 53.7256 116.123 53.7256C113.815 53.7256 112.396 54.2456 111.189 54.8904V58.3431C111.189 58.3431 112.989 57.0327 115.593 57.0327C118.579 57.0327 120.061 58.7383 120.061 60.9847C120.061 63.2518 118.494 65.2902 114.619 65.727V69.0341C114.619 69.0341 121.12 69.7829 121.12 76.002C121.12 79.3091 118.664 81.2019 115.085 81.2019C112.693 81.2019 111.062 80.2451 111.062 80.2451L110.321 83.6147C110.321 83.6147 112.036 84.8626 115.466 84.8626C120.76 84.8626 125.1 82.0131 125.1 75.7732C125.079 70.3861 121.755 68.1813 119.892 67.3493Z" fill="white"/>
<path d="M146.633 57.3863V53.9336H145.214H142.907H135.602V53.9752C135.115 53.9336 134.776 53.9336 134.776 53.9336C134.776 60.3815 134.776 72.5077 133.019 81.0563H131.727H130.901V90.0002H134.48V84.509H142.907H145.299V90.0002H148.877V84.509V81.1395V81.0563H146.633V57.3863ZM136.851 81.0563C137.317 77.6452 138.333 68.8053 138.418 57.3863H142.907V81.0563H136.851Z" fill="white"/>
<path d="M163.487 53.9336H162.45H162.365H161.179H160.057L154.467 84.509H158.046L159.422 76.73H165.181L166.536 84.509H170.262L164.673 53.9544H163.487V53.9336ZM160.036 73.298L162.323 60.4855L164.567 73.298H160.036Z" fill="white"/>
<path d="M235.581 53.9336H233.422C231.177 53.9752 224.169 55.4936 224.169 63.543C224.169 68.9093 227.176 71.6965 229.378 73.0277L224.084 84.4883H228.044L233.274 72.9653V84.4883H237V53.9336H235.581ZM233.252 57.2199V71.1557C232.617 70.9685 228.023 69.4293 228.023 63.6262C228.044 58.3847 231.77 57.4071 233.252 57.2199Z" fill="white"/>
<path d="M205.748 75.0452L205.939 53.9336H202.212V84.509H205.939L212.333 63.3766L212.143 84.509H215.869V53.9336H212.143L205.748 75.0452Z" fill="white"/>
<path d="M179.388 44.636C179.388 44.636 172.189 46.4248 170.199 42.8472C176.254 39.2489 181.484 34.0282 181.484 29.4523C181.484 27.9963 180.214 26.6027 177.821 26.6027C170.876 26.6027 165.879 33.3418 165.879 40.4553C165.879 41.2041 165.943 41.8697 166.091 42.452C162.767 44.1784 159.654 45.2808 158.426 45.2808C157.834 45.2808 157.876 43.8248 159.168 40.8921C162.026 34.3818 164.313 30.3467 164.313 29.0987C164.313 28.1419 163.635 27.1227 161.772 27.1227C158.045 27.1227 149.237 34.2986 149.47 34.9018C150.804 38.7081 148.793 45.0936 146.337 45.0936C144.029 45.0936 149.174 33.4458 152.837 28.1003L149.322 26.9355C149.322 26.9355 146.294 32.3434 144.283 37.4393C142.737 39.8313 138.481 44.3656 136.343 44.3656C134.48 44.3656 142.991 27.8715 142.991 27.8715L139.18 27.0603C139.18 27.0603 137.253 31.0746 135.348 35.3386H130.647L133.569 27.7259L129.758 26.8523L126.519 35.3178H122.601C122.601 35.3178 118.79 44.324 114.238 44.324C109.622 44.324 114.471 23.7324 125.058 17.7213L124.02 15.5997C118.049 17.3885 111.274 26.4779 109.157 35.9418C106.743 38.7913 101.746 44.3448 99.4804 44.3448C97.0878 44.3448 106.637 28.5787 106.637 28.5787L102.762 27.5595C102.762 27.5595 99.8615 32.2602 97.596 36.9401C95.9021 39.7273 92.1121 44.4072 89.7831 44.4072C87.8352 44.4072 96.8761 28.2043 96.8761 28.2043L93.0649 26.8107C92.5568 27.6635 89.7831 32.9466 87.7505 37.7097C85.9084 39.4361 80.3822 44.4696 78.6672 44.4696C76.8675 44.4696 81.1233 38.0841 83.8123 33.1754C85.9719 29.2859 86.2683 26.7899 83.5158 26.7899C80.8692 26.7899 76.6134 29.7227 73.5433 33.0506L75.8935 27.7467C75.8935 27.7467 70.6426 27.7467 65.1164 25.3755C65.1376 24.8764 65.1587 24.3772 65.1587 23.878C65.1587 10.5454 57.9175 0 51.8832 0C44.9384 0 46.1452 12.2302 53.0689 20.3836C55.7367 23.4204 59.0185 25.3964 62.0463 26.6859C61.1358 37.8969 54.9321 44.5112 52.0949 44.5112C50.0834 44.5112 50.147 38.1257 58.8915 29.0571L55.3767 26.8315C55.3344 26.8523 55.292 26.8939 55.2285 26.9355C53.6617 28.1003 47.712 30.8043 44.6631 30.3051C44.2185 26.3115 39.9203 27.1227 39.9203 29.3899C39.9203 30.9915 40.7673 31.9066 42.0588 32.3226C41.466 37.0025 36.5326 44.4904 32.5944 44.4904C30.4348 44.4904 29.9054 38.5625 39.3063 28.1419L35.8763 25.438C35.8763 25.438 30.0325 31.9066 27.8728 38.0217C25.9037 40.2265 19.7 44.4904 17.1592 44.4904C14.0256 44.4904 22.9818 30.5755 28.7197 21.6316C31.0276 18.0333 32.0016 15.8493 32.0016 14.4557C32.0016 12.8334 30.6677 12.3966 29.4608 12.3966C25.946 12.3966 19.0224 17.3885 12.5223 27.7883C12.5223 27.7883 19.2342 13.707 20.2081 11.4398C21.6902 8.21585 17.498 6.53108 16.0158 9.23504C14.0256 12.8958 0.75 46.7576 0.75 46.7576H4.79407C4.79407 46.7576 14.4914 23.0876 27.1741 15.9741C25.6073 18.3869 11.506 38.8329 11.506 44.1992C11.506 47.0488 13.962 47.2776 14.8725 47.2776C17.5403 47.2776 22.6007 45.4056 27.2164 40.6425C27.1317 41.1417 27.0894 41.6201 27.0894 42.0777C27.0894 46.4664 30.0748 47.2776 31.6416 47.2776C37.8242 47.2776 43.7527 38.9577 44.5996 32.593C47.0345 32.4682 49.9776 31.4906 52.2008 30.2219C49.8294 33.217 47.0133 37.7929 47.0133 42.5352C47.0133 46.196 49.4694 47.2984 51.3327 47.2984C57.4729 47.2984 63.6766 38.4793 64.9046 27.7467C68.1653 28.7659 70.6214 28.9739 70.7908 28.9739L63.3378 46.7784H67.4454L71.6801 37.2313C74.7713 33.945 79.2177 30.2427 80.3399 30.7419C81.5256 31.2618 73.8397 41.0793 73.8397 45.1768C73.8397 46.196 74.369 47.2984 76.444 47.2984C79.7894 47.2984 83.8546 43.9912 86.6071 40.4969C85.9296 42.3272 85.4849 43.908 85.4849 44.8856C85.4849 45.8424 86.0143 47.2984 88.1739 47.2984C90.8206 47.2984 93.3825 44.9896 95.3516 42.4936C95.1187 43.3464 94.9705 44.116 94.9705 44.74C94.9705 46.196 96.0927 47.2984 98.0194 47.2984C101.407 47.2984 105.959 42.7224 108.606 39.0201C108.5 39.8937 108.458 40.7881 108.458 41.6409C108.458 45.0104 109.728 47.2776 112.925 47.2776C119.637 47.2776 123.745 36.8777 123.745 36.8777H125.883L122.114 46.7784H126.222L130.012 36.8777H134.628C133.082 40.4553 131.748 43.8872 131.748 45.0104C131.748 46.1128 132.045 47.2776 134.437 47.2776C137.126 47.2776 140.556 44.6568 142.843 41.5993C142.61 42.5144 142.483 43.3464 142.483 44.0536C142.483 45.676 143.161 47.2776 145.532 47.2776C152.837 47.2776 154.022 37.5641 152.434 34.1946C152.434 34.1946 156.055 30.9291 160.226 29.6187C160.226 29.6187 154.255 41.0585 154.255 44.5736C154.255 46.9864 156.351 47.2776 157.241 47.2776C159.972 47.2776 163.444 46.2376 166.917 44.5736C170.156 49.3159 179.388 46.4664 179.388 46.4664V44.636ZM57.4093 19.926C51.0574 12.667 50.1681 2.32956 52.2643 2.32956C54.3604 2.32956 62.1945 9.21424 62.1945 23.878C60.4795 22.8588 58.8279 21.5692 57.4093 19.926ZM178.859 28.7243C179.684 28.7243 178.604 32.6554 174.073 37.0025C172.845 38.1881 171.3 39.3321 169.669 40.3721C169.839 34.6106 174.243 28.7243 178.859 28.7243Z" fill="white"/>
<path d="M188.048 53.9336V67.7238H181.463V53.9336H180.065H177.736V84.509H181.463V71.1557H188.048V84.509H191.774V53.9336H190.356H188.048Z" fill="white"/>
</svg>
